<svg version="1.1" xmlns="http://www.w3.org/2000/svg" x="0px" y="0px" viewBox="0 0 300 300" enable-background="new 0 0 300 300" xml:space="preserve">
  <path fill="#FFFFFF" d="M300.4,99.9c0,0-0.3-49.8-25.4-49.8h-23.8h-1.7v32.5H235V50.1h-8.8v32.5h-14.5V50.1h-10.6v32.5h-14.5V50.1h-10.6v32.5h-14.5V50.1h-6.4c0,0-11.6,0.7-16.6,7.9c-5.1,7.2-11.6,15.9-19.5,17c-5.6,0.8-12.3,4.7-15.8,12.9c-0.6-0.2-1.2-0.2-1.8-0.2H9.6c-5,0-9,5.4-9,12.2v0.2c0,6.7,4,12.2,9,12.2h91.9c0.6,0,1.2-0.1,1.8-0.2c3.4,8.1,10.1,12.1,15.8,12.9c7.9,1.1,14.4,9.7,19.5,17c5.1,7.2,16.6,7.9,16.6,7.9h6.4v-31.4h14.5v31.4h10.6v-31.4h14.5v31.4h10.6v-31.4h14.5v31.4h8.8v-31.4h14.5v31.4h1.7H275C301,149.8,300.4,99.9,300.4,99.9z M131.4,99.9c0,4.9-4,8.8-8.8,8.8s-8.8-4-8.8-8.8s4-8.8,8.8-8.8S131.4,95.1,131.4,99.9z"/>
  <g>
    <path fill="none" stroke="#FFFFFF" stroke-width="1.5" stroke-linecap="round" stroke-miterlimit="10" d="M285.3,168.3c0.8,41.9-32.5,76.6-74.5,77.4s-76.6-32.5-77.4-74.5"/>
    <path fill="none" stroke="#FFFFFF" stroke-width="1.5" stroke-linecap="round" stroke-miterlimit="10" d="M258.1,169.9c0.5,27-20.9,49.3-47.9,49.8s-49.3-20.9-49.8-47.9"/>
    <path fill="none" stroke="#FFFFFF" stroke-linecap="round" stroke-miterlimit="10" d="M234.2,172.1c0.3,13.6-10.5,24.8-24.1,25c-13.6,0.3-24.8-10.5-25-24.1"/>
  </g>
  <path fill="#FFFFFF" d="M219.8,208.8l30-30c2.7-2.7,2.7-7.1,0-9.8c-2.7-2.7-7.1-2.7-9.8,0l-30,30l-30-30c-2.7-2.7-7.1-2.7-9.8,0c-2.7,2.7-2.7,7.1,0,9.8l30,30l-30,30c-2.7,2.7-2.7,7.1,0,9.8c1.4,1.4,3.1,2,4.9,2s3.5-0.7,4.9-2l30-30l30,30c1.4,1.4,3.1,2,4.9,2s3.5-0.7,4.9-2c2.7-2.7,2.7-7.1,0-9.8L219.8,208.8z"/>
</svg>
